<svg width="16" height="16" viewBox="0 0 16 16" fill="none" xmlns="http://www.w3.org/2000/svg"><path d="M11.733 1.067a3.18 3.18 0 00-2.262.937L8.404 3.071a3.18 3.18 0 00-.938 2.262c0 .675.21 1.314.594 1.852l-.875.875a3.175 3.175 0 00-1.852-.593 3.18 3.18 0 00-2.262.937L2.004 9.471a3.18 3.18 0 00-.938 2.262c0 .855.334 1.658.938 2.263a3.177 3.177 0 002.262.937 3.18 3.18 0 002.263-.937l1.067-1.067a3.18 3.18 0 00.82-3.119l-.96.96a2.119 2.119 0 01-.615 1.405l-1.066 1.067a2.135 2.135 0 01-3.017 0 2.136 2.136 0 010-3.017l1.067-1.067a2.127 2.127 0 011.51-.623c.373 0 .744.105 1.076.3L4.956 10.29a.533.533 0 10.754.754l5.333-5.334a.533.533 0 10-.754-.754L8.834 6.411a2.13 2.13 0 01.324-2.586l1.067-1.067a2.125 2.125 0 011.508-.623c.547 0 1.092.208 1.508.623a2.135 2.135 0 010 3.017l-1.066 1.067c-.39.389-.894.59-1.405.614l-.96.96c.276.075.563.117.856.117a3.18 3.18 0 002.263-.937l1.067-1.067a3.18 3.18 0 00.937-2.262 3.18 3.18 0 00-.937-2.263 3.18 3.18 0 00-2.263-.937z" fill="#05D8E8"/></svg>