<svg width="24" height="24" viewBox="0 0 24 24" fill="none" xmlns="http://www.w3.org/2000/svg"><path d="M12 1.6a.8.8 0 00-.8.8v.138c0 .382-.27.723-.647.784-.183.03-.364.064-.544.105a.787.787 0 01-.892-.477l-.053-.125a.8.8 0 10-1.478.613l.053.128a.785.785 0 01-.295.97c-.157.098-.31.2-.46.306a.788.788 0 01-1.009-.098l-.097-.097a.8.8 0 10-1.131 1.131l.097.097c.27.27.32.698.098 1.01a9.146 9.146 0 00-.306.459.788.788 0 01-.972.297l-.126-.053a.8.8 0 10-.614 1.478l.125.051a.788.788 0 01.478.892c-.041.18-.077.36-.107.544a.786.786 0 01-.782.647H2.4a.8.8 0 000 1.6h.138c.382 0 .723.27.784.647.03.183.064.364.105.544a.787.787 0 01-.477.892l-.125.053a.8.8 0 10.613 1.478l.128-.053a.79.79 0 01.972.295c.097.157.199.31.306.461a.79.79 0 01-.099 1.01l-.098.096a.8.8 0 101.131 1.132l.099-.097a.786.786 0 011.007-.1c.15.107.305.21.461.308a.79.79 0 01.297.971l-.053.127a.8.8 0 101.478.614l.052-.125a.788.788 0 01.892-.478c.18.04.36.077.544.106.375.059.645.4.645.781v.138a.8.8 0 001.6 0v-.138c0-.382.27-.723.647-.784.183-.03.365-.064.544-.105a.787.787 0 01.892.477l.053.125a.8.8 0 101.478-.613l-.053-.128a.79.79 0 01.295-.972 8.85 8.85 0 00.461-.306.788.788 0 011.01.099l.097.098a.8.8 0 101.13-1.131l-.096-.099a.786.786 0 01-.1-1.007c.107-.15.21-.305.308-.461a.79.79 0 01.972-.297l.126.053a.8.8 0 10.614-1.478l-.125-.052a.788.788 0 01-.478-.892c.04-.18.077-.36.106-.544.059-.375.4-.645.782-.645h.137a.8.8 0 000-1.6h-.137a.788.788 0 01-.785-.647 8.696 8.696 0 00-.105-.544.787.787 0 01.477-.892l.125-.053a.8.8 0 10-.612-1.478l-.128.053a.79.79 0 01-.972-.295c-.098-.157-.2-.31-.307-.461a.788.788 0 01.099-1.01l.098-.096a.8.8 0 10-1.131-1.132l-.097.099a.788.788 0 01-1.01.1 8.877 8.877 0 00-.46-.308.789.789 0 01-.296-.972l.054-.126a.8.8 0 10-1.478-.614l-.054.124a.788.788 0 01-.892.479 8.716 8.716 0 00-.544-.107.786.786 0 01-.645-.782V2.4a.8.8 0 00-.8-.8zm0 4a6.398 6.398 0 016.345 5.6h-4.962A1.6 1.6 0 0012 10.4h-.002l-2.48-4.3A6.377 6.377 0 0112 5.6zM8.136 6.906l2.48 4.294a1.6 1.6 0 00-.216.8c.001.28.075.555.216.797l-2.482 4.295a6.384 6.384 0 01.002-10.186zm5.248 5.894h4.961a6.398 6.398 0 01-8.828 5.1L12 13.6a1.6 1.6 0 001.384-.8z" fill="#fff"/></svg>