<svg width="30" height="30" viewBox="0 0 30 30" fill="none" xmlns="http://www.w3.org/2000/svg"><path d="M19 3l1 7 2.246-1.873A9.938 9.938 0 0125 15c0 5.535-4.465 10-10 10-5.534 0-10-4.465-10-10a1 1 0 10-2 0c0 6.616 5.385 12 12 12 6.616 0 12-5.384 12-12 0-3.148-1.228-6.01-3.217-8.152L26 5l-7-2zm-5.273.068l-.098.014-.734.516-.026.896.703.557.352.01.1-.014.732-.516.025-.896-.7-.557-.354-.01zM9.803 4.23l-.332.12-.086.048-.498.747.3.843.856.266.332-.117.088-.051.496-.746-.3-.844-.856-.266zM7.149 6.81l-.895.052-.27.229-.062.076-.203.873.578.686.895-.055.269-.227.063-.076.203-.873-.578-.685zM14 9v1.62c-1.385.307-2.254 1.243-2.254 2.556 0 1.305.766 2.117 2.326 2.443l1.116.238c1.05.226 1.476.54 1.476 1.086 0 .647-.659 1.098-1.59 1.098-1.009 0-1.71-.445-1.793-1.139h-1.73c.054 1.321.978 2.224 2.45 2.5V21h2v-1.602c1.531-.29 2.448-1.25 2.448-2.68 0-1.327-.74-2.07-2.46-2.433l-1.034-.219c-1.003-.213-1.41-.517-1.41-1.045 0-.653.592-1.068 1.488-1.068.866 0 1.495.451 1.578 1.127h1.686c-.044-1.243-.947-2.163-2.297-2.465V9h-2zm-9.285 1.232l-.818.368-.17.308-.034.094.122.889.783.433.818-.367.17-.309.033-.093-.12-.889-.784-.434z" fill="#fff"/></svg>