<svg width="24" height="24" viewBox="0 0 24 24" fill="none" xmlns="http://www.w3.org/2000/svg"><path d="M12 24c6.627 0 12-5.373 12-12S18.627 0 12 0 0 5.373 0 12s5.373 12 12 12z" fill="#FF296D"/><path d="M8.893 10.723L12 7.616l3.109 3.109 1.808-1.808L12 4 7.085 8.915l1.808 1.808zM4 12l1.808-1.808L7.616 12l-1.808 1.808L4 12zm4.893 1.277L12 16.384l3.109-3.109 1.808 1.808L12 20l-4.918-4.918 1.811-1.806v.001zM16.384 12l1.808-1.808L20 12.001l-1.808 1.808-1.808-1.808V12z" fill="#F3BA2F"/><path d="M13.834 11.999h.001L12 10.164 10.164 12l.003.003L12 13.836 13.836 12l-.002-.001z" fill="#F3BA2F"/></svg>