<svg width="29" height="29" viewBox="0 0 29 29" fill="none" xmlns="http://www.w3.org/2000/svg"><g clip-path="url(#clip0)"><path d="M14.5 29A14.5 14.5 0 1129 14.5 14.52 14.52 0 0114.5 29zm0-27.982A13.482 13.482 0 1027.983 14.5 13.498 13.498 0 0014.5 1.018z" fill="#fff"/><path d="M13.11 24.126c-2.894-.25-5.295-1.837-6.237-3.989a4.96 4.96 0 01-.432-2.035c0-2.193 1.44-4.11 3.592-5.174l.097-.046a1.018 1.018 0 01.203-2.005 4.186 4.186 0 018.14 0 1.018 1.018 0 01.24 2c-.08.01-.16.01-.24 0a4.081 4.081 0 01-1.109 1.97 4.186 4.186 0 01-1.618 1.001c-.244.08-.45.249-.575.473-.366.626-.976 1.96-.508 3.246a4.956 4.956 0 011.607-1.704c1.293-.789 3.246-.54 3.287 1.282a3.887 3.887 0 01-1.017 2.722 8.466 8.466 0 002.615-2.376c3.53-4.976.452-12.867-6.65-13.07a8.288 8.288 0 00-7.988 5.708.606.606 0 11-1.15-.366c3.47-10.048 18.108-7.952 18.52 2.808.112 6.161-5.429 10.232-10.776 9.555z" fill="#fff"/><path d="M14.494 10.764a.114.114 0 00.011-.044h-.015a1.678 1.678 0 111.897 2.249.671.671 0 00-.508.661v.305a1.15 1.15 0 01-1.15 1.15h-.697a1.15 1.15 0 01-1.15-1.15v-.305a.671.671 0 00-.509-.661 1.685 1.685 0 111.903-2.25.117.117 0 00.152.103.113.113 0 00.066-.058z" fill="#010014"/><path d="M13.513 11.94a.081.081 0 01-.056.087h-.305c-.277 0-.547-.085-.774-.244a1.876 1.876 0 01-.193-.107 1.703 1.703 0 01-.127-.152 1.47 1.47 0 01-.102-.168.386.386 0 010-.336.433.433 0 01.087-.127.403.403 0 01.346-.117c.285.04.549.173.753.376l.05.051.036.046a.66.66 0 01.097.132l.03.046a.17.17 0 01.026.05l.025.052v.05s0 .046.025.067c.021.063.037.127.046.193a.085.085 0 000 .036c.018.018.03.041.036.066zm3.312-.6a1.273 1.273 0 01-.229.316 1.35 1.35 0 01-.183.163 1.339 1.339 0 01-.768.244h-.301a.077.077 0 01-.055-.076.304.304 0 010-.072.738.738 0 01.03-.147.486.486 0 010-.066v-.061l.061-.127c.045-.09.102-.174.168-.25l.05-.05a1.332 1.332 0 01.753-.371.387.387 0 01.428.243.388.388 0 010 .31l.046-.056zm1.76 1.135a.04.04 0 01-.046-.03c.025-.18.037-.363.036-.545a3.804 3.804 0 00-.035-.544.04.04 0 01.03-.046.6.6 0 01.298 1.012.595.595 0 01-.298.163l.015-.01zm-8.374-.585c0 .17.011.34.036.509a.066.066 0 01-.05.066.606.606 0 01-.428-.738.601.601 0 01.427-.422.052.052 0 01.042.005.051.051 0 01.024.036c-.03.18-.048.361-.05.544z" fill="#fff"/></g><defs><clipPath id="clip0"><path fill="#fff" d="M0 0h29v29H0z"/></clipPath></defs></svg>